<mxfile host="app.diagrams.net" modified="2024-04-17T16:59:57.379Z" agent="Mozilla/5.0 (Windows NT 10.0; Win64; x64; rv:124.0) Gecko/20100101 Firefox/124.0" etag="njYFluSCS_dt89b-2zXj" version="24.2.5" type="device">
  <diagram name="Page-1" id="fWnYfipDaCioYMNku1Gn">
    <mxGraphModel dx="-300" dy="1616" grid="1" gridSize="10" guides="1" tooltips="1" connect="1" arrows="1" fold="1" page="0" pageScale="1" pageWidth="850" pageHeight="1100" math="0" shadow="0">
      <root>
        <mxCell id="0" />
        <mxCell id="1" parent="0" />
        <mxCell id="kypGd0WmLNfPFhzGnKB_-1" value="movie" style="rounded=0;whiteSpace=wrap;html=1;fontSize=20;" parent="1" vertex="1">
          <mxGeometry x="3190" y="620" width="120" height="60" as="geometry" />
        </mxCell>
        <mxCell id="kypGd0WmLNfPFhzGnKB_-2" value="adult" style="ellipse;whiteSpace=wrap;html=1;fontSize=20;" parent="1" vertex="1">
          <mxGeometry x="2970" y="910" width="120" height="80" as="geometry" />
        </mxCell>
        <mxCell id="kypGd0WmLNfPFhzGnKB_-3" value="budget" style="ellipse;whiteSpace=wrap;html=1;fontSize=20;" parent="1" vertex="1">
          <mxGeometry x="3110" y="870" width="120" height="80" as="geometry" />
        </mxCell>
        <mxCell id="kypGd0WmLNfPFhzGnKB_-4" value="&lt;u&gt;id&lt;/u&gt;" style="ellipse;whiteSpace=wrap;html=1;fontSize=20;" parent="1" vertex="1">
          <mxGeometry x="3250" y="870" width="120" height="80" as="geometry" />
        </mxCell>
        <mxCell id="kypGd0WmLNfPFhzGnKB_-5" value="title" style="ellipse;whiteSpace=wrap;html=1;fontSize=20;" parent="1" vertex="1">
          <mxGeometry x="3390" y="910" width="120" height="80" as="geometry" />
        </mxCell>
        <mxCell id="kypGd0WmLNfPFhzGnKB_-6" value="" style="endArrow=none;html=1;rounded=0;entryX=0.5;entryY=0;entryDx=0;entryDy=0;" parent="1" target="kypGd0WmLNfPFhzGnKB_-2" edge="1">
          <mxGeometry width="50" height="50" relative="1" as="geometry">
            <mxPoint x="3250" y="680" as="sourcePoint" />
            <mxPoint x="3270" y="620" as="targetPoint" />
          </mxGeometry>
        </mxCell>
        <mxCell id="kypGd0WmLNfPFhzGnKB_-7" value="" style="endArrow=none;html=1;rounded=0;entryX=0.5;entryY=0;entryDx=0;entryDy=0;" parent="1" target="kypGd0WmLNfPFhzGnKB_-3" edge="1">
          <mxGeometry width="50" height="50" relative="1" as="geometry">
            <mxPoint x="3250" y="680" as="sourcePoint" />
            <mxPoint x="3062" y="528" as="targetPoint" />
          </mxGeometry>
        </mxCell>
        <mxCell id="kypGd0WmLNfPFhzGnKB_-8" value="" style="endArrow=none;html=1;rounded=0;entryX=0.5;entryY=0;entryDx=0;entryDy=0;" parent="1" target="kypGd0WmLNfPFhzGnKB_-4" edge="1">
          <mxGeometry width="50" height="50" relative="1" as="geometry">
            <mxPoint x="3250" y="680" as="sourcePoint" />
            <mxPoint x="3300" y="920" as="targetPoint" />
          </mxGeometry>
        </mxCell>
        <mxCell id="kypGd0WmLNfPFhzGnKB_-9" value="" style="endArrow=none;html=1;rounded=0;entryX=0.5;entryY=0;entryDx=0;entryDy=0;exitX=0.5;exitY=1;exitDx=0;exitDy=0;" parent="1" source="kypGd0WmLNfPFhzGnKB_-1" target="kypGd0WmLNfPFhzGnKB_-5" edge="1">
          <mxGeometry width="50" height="50" relative="1" as="geometry">
            <mxPoint x="3270" y="630" as="sourcePoint" />
            <mxPoint x="3200" y="550" as="targetPoint" />
          </mxGeometry>
        </mxCell>
        <mxCell id="kypGd0WmLNfPFhzGnKB_-10" value="hasCast" style="rhombus;whiteSpace=wrap;html=1;fontSize=20;" parent="1" vertex="1">
          <mxGeometry x="3430" y="600" width="120" height="100" as="geometry" />
        </mxCell>
        <mxCell id="kypGd0WmLNfPFhzGnKB_-11" value="hasCrew" style="rhombus;whiteSpace=wrap;html=1;fontSize=20;" parent="1" vertex="1">
          <mxGeometry x="2950" y="600" width="120" height="100" as="geometry" />
        </mxCell>
        <mxCell id="kypGd0WmLNfPFhzGnKB_-12" value="" style="endArrow=none;html=1;rounded=0;exitX=1;exitY=0.5;exitDx=0;exitDy=0;entryX=0;entryY=0.5;entryDx=0;entryDy=0;" parent="1" source="kypGd0WmLNfPFhzGnKB_-11" target="kypGd0WmLNfPFhzGnKB_-1" edge="1">
          <mxGeometry width="50" height="50" relative="1" as="geometry">
            <mxPoint x="3180" y="670" as="sourcePoint" />
            <mxPoint x="3230" y="620" as="targetPoint" />
          </mxGeometry>
        </mxCell>
        <mxCell id="kypGd0WmLNfPFhzGnKB_-13" value="" style="endArrow=none;html=1;rounded=0;entryX=0;entryY=0.5;entryDx=0;entryDy=0;exitX=1;exitY=0.5;exitDx=0;exitDy=0;" parent="1" source="kypGd0WmLNfPFhzGnKB_-1" target="kypGd0WmLNfPFhzGnKB_-10" edge="1">
          <mxGeometry width="50" height="50" relative="1" as="geometry">
            <mxPoint x="3340" y="640" as="sourcePoint" />
            <mxPoint x="3530" y="650" as="targetPoint" />
          </mxGeometry>
        </mxCell>
        <mxCell id="kypGd0WmLNfPFhzGnKB_-15" value="movie_cast" style="rounded=0;whiteSpace=wrap;html=1;fontSize=20;" parent="1" vertex="1">
          <mxGeometry x="3670" y="620" width="120" height="60" as="geometry" />
        </mxCell>
        <mxCell id="kypGd0WmLNfPFhzGnKB_-16" value="&lt;div&gt;movie_crew&lt;/div&gt;" style="rounded=0;whiteSpace=wrap;html=1;fontSize=20;" parent="1" vertex="1">
          <mxGeometry x="2710" y="620" width="120" height="60" as="geometry" />
        </mxCell>
        <mxCell id="kypGd0WmLNfPFhzGnKB_-18" value="&lt;u&gt;cid&lt;/u&gt;" style="ellipse;whiteSpace=wrap;html=1;fontSize=20;" parent="1" vertex="1">
          <mxGeometry x="3460" y="450" width="120" height="80" as="geometry" />
        </mxCell>
        <mxCell id="kypGd0WmLNfPFhzGnKB_-19" value="movie_id" style="ellipse;whiteSpace=wrap;html=1;fontSize=20;" parent="1" vertex="1">
          <mxGeometry x="3600" y="450" width="120" height="80" as="geometry" />
        </mxCell>
        <mxCell id="kypGd0WmLNfPFhzGnKB_-20" value="person_id" style="ellipse;whiteSpace=wrap;html=1;fontSize=20;" parent="1" vertex="1">
          <mxGeometry x="3740" y="450" width="120" height="80" as="geometry" />
        </mxCell>
        <mxCell id="kypGd0WmLNfPFhzGnKB_-21" value="person_id" style="ellipse;whiteSpace=wrap;html=1;fontSize=20;" parent="1" vertex="1">
          <mxGeometry x="2640" y="450" width="120" height="80" as="geometry" />
        </mxCell>
        <mxCell id="kypGd0WmLNfPFhzGnKB_-22" value="movie_id" style="ellipse;whiteSpace=wrap;html=1;fontSize=20;" parent="1" vertex="1">
          <mxGeometry x="2780" y="450" width="120" height="80" as="geometry" />
        </mxCell>
        <mxCell id="kypGd0WmLNfPFhzGnKB_-23" value="&lt;u&gt;cid&lt;/u&gt;" style="ellipse;whiteSpace=wrap;html=1;fontSize=20;" parent="1" vertex="1">
          <mxGeometry x="2920" y="450" width="120" height="80" as="geometry" />
        </mxCell>
        <mxCell id="kypGd0WmLNfPFhzGnKB_-24" value="character" style="ellipse;whiteSpace=wrap;html=1;fontSize=20;" parent="1" vertex="1">
          <mxGeometry x="3880" y="450" width="120" height="80" as="geometry" />
        </mxCell>
        <mxCell id="kypGd0WmLNfPFhzGnKB_-25" value="department" style="ellipse;whiteSpace=wrap;html=1;fontSize=20;" parent="1" vertex="1">
          <mxGeometry x="2500" y="450" width="120" height="80" as="geometry" />
        </mxCell>
        <mxCell id="kypGd0WmLNfPFhzGnKB_-26" value="" style="endArrow=none;html=1;rounded=0;entryX=0.5;entryY=1;entryDx=0;entryDy=0;exitX=0.5;exitY=0;exitDx=0;exitDy=0;" parent="1" source="kypGd0WmLNfPFhzGnKB_-16" target="kypGd0WmLNfPFhzGnKB_-23" edge="1">
          <mxGeometry width="50" height="50" relative="1" as="geometry">
            <mxPoint x="2910" y="630" as="sourcePoint" />
            <mxPoint x="2960" y="580" as="targetPoint" />
          </mxGeometry>
        </mxCell>
        <mxCell id="kypGd0WmLNfPFhzGnKB_-28" value="" style="endArrow=none;html=1;rounded=0;entryX=0.5;entryY=1;entryDx=0;entryDy=0;exitX=0.5;exitY=0;exitDx=0;exitDy=0;" parent="1" source="kypGd0WmLNfPFhzGnKB_-16" target="kypGd0WmLNfPFhzGnKB_-21" edge="1">
          <mxGeometry width="50" height="50" relative="1" as="geometry">
            <mxPoint x="2910" y="630" as="sourcePoint" />
            <mxPoint x="2960" y="580" as="targetPoint" />
          </mxGeometry>
        </mxCell>
        <mxCell id="kypGd0WmLNfPFhzGnKB_-29" value="" style="endArrow=none;html=1;rounded=0;entryX=0.5;entryY=1;entryDx=0;entryDy=0;exitX=0.5;exitY=0;exitDx=0;exitDy=0;" parent="1" source="kypGd0WmLNfPFhzGnKB_-16" target="kypGd0WmLNfPFhzGnKB_-22" edge="1">
          <mxGeometry width="50" height="50" relative="1" as="geometry">
            <mxPoint x="2790" y="640" as="sourcePoint" />
            <mxPoint x="2880" y="550" as="targetPoint" />
          </mxGeometry>
        </mxCell>
        <mxCell id="kypGd0WmLNfPFhzGnKB_-31" value="" style="endArrow=none;html=1;rounded=0;entryX=0.5;entryY=1;entryDx=0;entryDy=0;exitX=0.5;exitY=0;exitDx=0;exitDy=0;" parent="1" source="kypGd0WmLNfPFhzGnKB_-15" target="kypGd0WmLNfPFhzGnKB_-20" edge="1">
          <mxGeometry width="50" height="50" relative="1" as="geometry">
            <mxPoint x="3730" y="620" as="sourcePoint" />
            <mxPoint x="4070" y="540" as="targetPoint" />
          </mxGeometry>
        </mxCell>
        <mxCell id="kypGd0WmLNfPFhzGnKB_-32" value="" style="endArrow=none;html=1;rounded=0;entryX=0.5;entryY=1;entryDx=0;entryDy=0;exitX=0.5;exitY=0;exitDx=0;exitDy=0;" parent="1" source="kypGd0WmLNfPFhzGnKB_-15" target="kypGd0WmLNfPFhzGnKB_-19" edge="1">
          <mxGeometry width="50" height="50" relative="1" as="geometry">
            <mxPoint x="3740" y="630" as="sourcePoint" />
            <mxPoint x="3930" y="540" as="targetPoint" />
          </mxGeometry>
        </mxCell>
        <mxCell id="kypGd0WmLNfPFhzGnKB_-33" value="" style="endArrow=none;html=1;rounded=0;entryX=0.5;entryY=1;entryDx=0;entryDy=0;exitX=0.5;exitY=0;exitDx=0;exitDy=0;" parent="1" source="kypGd0WmLNfPFhzGnKB_-15" target="kypGd0WmLNfPFhzGnKB_-18" edge="1">
          <mxGeometry width="50" height="50" relative="1" as="geometry">
            <mxPoint x="3750" y="640" as="sourcePoint" />
            <mxPoint x="3940" y="550" as="targetPoint" />
          </mxGeometry>
        </mxCell>
        <mxCell id="kypGd0WmLNfPFhzGnKB_-34" value="collection" style="rounded=0;whiteSpace=wrap;html=1;fontSize=20;" parent="1" vertex="1">
          <mxGeometry x="3635" y="970" width="180" height="60" as="geometry" />
        </mxCell>
        <mxCell id="kypGd0WmLNfPFhzGnKB_-35" value="name" style="ellipse;whiteSpace=wrap;html=1;fontSize=20;" parent="1" vertex="1">
          <mxGeometry x="3880" y="1010" width="120" height="80" as="geometry" />
        </mxCell>
        <mxCell id="kypGd0WmLNfPFhzGnKB_-36" value="&lt;u&gt;id&lt;/u&gt;" style="ellipse;whiteSpace=wrap;html=1;fontSize=20;" parent="1" vertex="1">
          <mxGeometry x="3880" y="910" width="120" height="80" as="geometry" />
        </mxCell>
        <mxCell id="kypGd0WmLNfPFhzGnKB_-37" value="" style="endArrow=none;html=1;rounded=0;entryX=0;entryY=0.5;entryDx=0;entryDy=0;exitX=1;exitY=0.5;exitDx=0;exitDy=0;" parent="1" source="kypGd0WmLNfPFhzGnKB_-34" target="kypGd0WmLNfPFhzGnKB_-36" edge="1">
          <mxGeometry width="50" height="50" relative="1" as="geometry">
            <mxPoint x="4205" y="1080" as="sourcePoint" />
            <mxPoint x="4295" y="1000" as="targetPoint" />
          </mxGeometry>
        </mxCell>
        <mxCell id="kypGd0WmLNfPFhzGnKB_-38" value="" style="endArrow=none;html=1;rounded=0;entryX=0;entryY=0.5;entryDx=0;entryDy=0;exitX=1;exitY=0.5;exitDx=0;exitDy=0;" parent="1" source="kypGd0WmLNfPFhzGnKB_-34" target="kypGd0WmLNfPFhzGnKB_-35" edge="1">
          <mxGeometry width="50" height="50" relative="1" as="geometry">
            <mxPoint x="4205" y="1080" as="sourcePoint" />
            <mxPoint x="4305" y="1010" as="targetPoint" />
          </mxGeometry>
        </mxCell>
        <mxCell id="kypGd0WmLNfPFhzGnKB_-44" value="bellongsTocollection" style="rhombus;whiteSpace=wrap;html=1;fontSize=20;" parent="1" vertex="1">
          <mxGeometry x="3425" y="760" width="230" height="150" as="geometry" />
        </mxCell>
        <mxCell id="kypGd0WmLNfPFhzGnKB_-45" value="" style="endArrow=none;html=1;rounded=0;entryX=0.5;entryY=0;entryDx=0;entryDy=0;exitX=1;exitY=1;exitDx=0;exitDy=0;" parent="1" source="kypGd0WmLNfPFhzGnKB_-44" target="kypGd0WmLNfPFhzGnKB_-34" edge="1">
          <mxGeometry width="50" height="50" relative="1" as="geometry">
            <mxPoint x="3500" y="990" as="sourcePoint" />
            <mxPoint x="4120" y="1050" as="targetPoint" />
          </mxGeometry>
        </mxCell>
        <mxCell id="kypGd0WmLNfPFhzGnKB_-47" value="" style="endArrow=classic;html=1;rounded=0;exitX=0.75;exitY=1;exitDx=0;exitDy=0;entryX=0;entryY=0;entryDx=0;entryDy=0;" parent="1" source="kypGd0WmLNfPFhzGnKB_-1" target="kypGd0WmLNfPFhzGnKB_-44" edge="1">
          <mxGeometry width="50" height="50" relative="1" as="geometry">
            <mxPoint x="3910" y="840" as="sourcePoint" />
            <mxPoint x="3560" y="860" as="targetPoint" />
          </mxGeometry>
        </mxCell>
        <mxCell id="kypGd0WmLNfPFhzGnKB_-48" value="genre" style="rounded=0;whiteSpace=wrap;html=1;fontSize=20;flipH=1;flipV=1;" parent="1" vertex="1">
          <mxGeometry x="2685" y="970" width="180" height="60" as="geometry" />
        </mxCell>
        <mxCell id="kypGd0WmLNfPFhzGnKB_-49" value="name" style="ellipse;whiteSpace=wrap;html=1;fontSize=20;flipH=1;flipV=1;" parent="1" vertex="1">
          <mxGeometry x="2500" y="1010" width="120" height="80" as="geometry" />
        </mxCell>
        <mxCell id="kypGd0WmLNfPFhzGnKB_-50" value="&lt;u&gt;id&lt;/u&gt;" style="ellipse;whiteSpace=wrap;html=1;fontSize=20;flipH=1;flipV=1;" parent="1" vertex="1">
          <mxGeometry x="2500" y="910" width="120" height="80" as="geometry" />
        </mxCell>
        <mxCell id="kypGd0WmLNfPFhzGnKB_-51" value="" style="endArrow=none;html=1;rounded=0;entryX=1;entryY=0.5;entryDx=0;entryDy=0;exitX=0;exitY=0.5;exitDx=0;exitDy=0;" parent="1" source="kypGd0WmLNfPFhzGnKB_-48" target="kypGd0WmLNfPFhzGnKB_-50" edge="1">
          <mxGeometry width="50" height="50" relative="1" as="geometry">
            <mxPoint x="2765" y="910" as="sourcePoint" />
            <mxPoint x="2855" y="990" as="targetPoint" />
          </mxGeometry>
        </mxCell>
        <mxCell id="kypGd0WmLNfPFhzGnKB_-52" value="" style="endArrow=none;html=1;rounded=0;entryX=1;entryY=0.5;entryDx=0;entryDy=0;exitX=0;exitY=0.5;exitDx=0;exitDy=0;" parent="1" source="kypGd0WmLNfPFhzGnKB_-48" target="kypGd0WmLNfPFhzGnKB_-49" edge="1">
          <mxGeometry width="50" height="50" relative="1" as="geometry">
            <mxPoint x="2765" y="1030" as="sourcePoint" />
            <mxPoint x="2865" y="1100" as="targetPoint" />
          </mxGeometry>
        </mxCell>
        <mxCell id="kypGd0WmLNfPFhzGnKB_-61" value="" style="endArrow=none;html=1;rounded=0;entryX=0.25;entryY=1;entryDx=0;entryDy=0;exitX=1;exitY=0;exitDx=0;exitDy=0;" parent="1" source="kypGd0WmLNfPFhzGnKB_-105" target="kypGd0WmLNfPFhzGnKB_-1" edge="1">
          <mxGeometry width="50" height="50" relative="1" as="geometry">
            <mxPoint x="3070" y="820" as="sourcePoint" />
            <mxPoint x="3090" y="850" as="targetPoint" />
          </mxGeometry>
        </mxCell>
        <mxCell id="kypGd0WmLNfPFhzGnKB_-91" value="" style="endArrow=none;html=1;rounded=0;entryX=1;entryY=1;entryDx=0;entryDy=0;exitX=0.25;exitY=0;exitDx=0;exitDy=0;" parent="1" source="kypGd0WmLNfPFhzGnKB_-1" target="kypGd0WmLNfPFhzGnKB_-147" edge="1">
          <mxGeometry width="50" height="50" relative="1" as="geometry">
            <mxPoint x="3060" y="350" as="sourcePoint" />
            <mxPoint x="3140" y="365" as="targetPoint" />
          </mxGeometry>
        </mxCell>
        <mxCell id="kypGd0WmLNfPFhzGnKB_-105" value="hasGenre" style="rhombus;whiteSpace=wrap;html=1;fontSize=20;" parent="1" vertex="1">
          <mxGeometry x="2835" y="760" width="230" height="150" as="geometry" />
        </mxCell>
        <mxCell id="kypGd0WmLNfPFhzGnKB_-179" value="rating" style="ellipse;whiteSpace=wrap;html=1;fontSize=20;flipH=1;flipV=1;" parent="1" vertex="1">
          <mxGeometry x="3110" y="-70" width="120" height="80" as="geometry" />
        </mxCell>
        <mxCell id="kypGd0WmLNfPFhzGnKB_-182" value="" style="endArrow=none;html=1;rounded=0;entryX=0.5;entryY=1;entryDx=0;entryDy=0;exitX=0.5;exitY=0;exitDx=0;exitDy=0;" parent="1" source="gU6FFrFlSQDx7aGuGjih-10" target="kypGd0WmLNfPFhzGnKB_-179" edge="1">
          <mxGeometry width="50" height="50" relative="1" as="geometry">
            <mxPoint x="3250" y="90" as="sourcePoint" />
            <mxPoint x="3190" y="20" as="targetPoint" />
          </mxGeometry>
        </mxCell>
        <mxCell id="kypGd0WmLNfPFhzGnKB_-183" value="user_id" style="ellipse;whiteSpace=wrap;html=1;fontSize=20;flipH=1;flipV=1;" parent="1" vertex="1">
          <mxGeometry x="3270" y="-70" width="120" height="80" as="geometry" />
        </mxCell>
        <mxCell id="kypGd0WmLNfPFhzGnKB_-184" value="" style="endArrow=none;html=1;rounded=0;entryX=0.5;entryY=1;entryDx=0;entryDy=0;exitX=0.5;exitY=0;exitDx=0;exitDy=0;" parent="1" source="gU6FFrFlSQDx7aGuGjih-10" target="kypGd0WmLNfPFhzGnKB_-183" edge="1">
          <mxGeometry width="50" height="50" relative="1" as="geometry">
            <mxPoint x="3250" y="90" as="sourcePoint" />
            <mxPoint x="3330" y="20" as="targetPoint" />
          </mxGeometry>
        </mxCell>
        <mxCell id="kypGd0WmLNfPFhzGnKB_-128" value="productioncompany" style="rounded=0;whiteSpace=wrap;html=1;fontSize=20;" parent="1" vertex="1">
          <mxGeometry x="3635" y="120" width="180" height="60" as="geometry" />
        </mxCell>
        <mxCell id="kypGd0WmLNfPFhzGnKB_-129" value="&lt;u&gt;id&lt;/u&gt;" style="ellipse;whiteSpace=wrap;html=1;fontSize=20;" parent="1" vertex="1">
          <mxGeometry x="3590" y="-40" width="120" height="80" as="geometry" />
        </mxCell>
        <mxCell id="kypGd0WmLNfPFhzGnKB_-130" value="name" style="ellipse;whiteSpace=wrap;html=1;fontSize=20;" parent="1" vertex="1">
          <mxGeometry x="3750" y="-40" width="120" height="80" as="geometry" />
        </mxCell>
        <mxCell id="kypGd0WmLNfPFhzGnKB_-137" value="hasProductioncompany" style="rhombus;whiteSpace=wrap;html=1;fontSize=20;" parent="1" vertex="1">
          <mxGeometry x="3425" y="240" width="230" height="150" as="geometry" />
        </mxCell>
        <mxCell id="kypGd0WmLNfPFhzGnKB_-138" value="" style="endArrow=none;html=1;rounded=0;entryX=0.5;entryY=1;entryDx=0;entryDy=0;exitX=1;exitY=0;exitDx=0;exitDy=0;" parent="1" source="kypGd0WmLNfPFhzGnKB_-137" target="kypGd0WmLNfPFhzGnKB_-128" edge="1">
          <mxGeometry width="50" height="50" relative="1" as="geometry">
            <mxPoint x="3495" y="160" as="sourcePoint" />
            <mxPoint x="4115" y="100" as="targetPoint" />
          </mxGeometry>
        </mxCell>
        <mxCell id="kypGd0WmLNfPFhzGnKB_-139" value="keyword" style="rounded=0;whiteSpace=wrap;html=1;fontSize=20;flipH=1;flipV=1;" parent="1" vertex="1">
          <mxGeometry x="2685" y="120" width="180" height="60" as="geometry" />
        </mxCell>
        <mxCell id="kypGd0WmLNfPFhzGnKB_-140" value="&lt;u&gt;id&lt;/u&gt;" style="ellipse;whiteSpace=wrap;html=1;fontSize=20;flipH=1;flipV=1;" parent="1" vertex="1">
          <mxGeometry x="2790" y="-40" width="120" height="80" as="geometry" />
        </mxCell>
        <mxCell id="kypGd0WmLNfPFhzGnKB_-141" value="name" style="ellipse;whiteSpace=wrap;html=1;fontSize=20;flipH=1;flipV=1;" parent="1" vertex="1">
          <mxGeometry x="2630" y="-40" width="120" height="80" as="geometry" />
        </mxCell>
        <mxCell id="kypGd0WmLNfPFhzGnKB_-147" value="hasKeyword" style="rhombus;whiteSpace=wrap;html=1;fontSize=20;" parent="1" vertex="1">
          <mxGeometry x="2835" y="240" width="230" height="150" as="geometry" />
        </mxCell>
        <mxCell id="kypGd0WmLNfPFhzGnKB_-190" value="Review" style="rhombus;whiteSpace=wrap;html=1;fontSize=20;" parent="1" vertex="1">
          <mxGeometry x="3135" y="240" width="230" height="150" as="geometry" />
        </mxCell>
        <mxCell id="kypGd0WmLNfPFhzGnKB_-193" value="" style="endArrow=none;html=1;rounded=0;entryX=0.5;entryY=1;entryDx=0;entryDy=0;exitX=0.5;exitY=0;exitDx=0;exitDy=0;" parent="1" source="kypGd0WmLNfPFhzGnKB_-16" target="kypGd0WmLNfPFhzGnKB_-25" edge="1">
          <mxGeometry width="50" height="50" relative="1" as="geometry">
            <mxPoint x="2770" y="620" as="sourcePoint" />
            <mxPoint x="2560" y="530" as="targetPoint" />
          </mxGeometry>
        </mxCell>
        <mxCell id="kypGd0WmLNfPFhzGnKB_-195" value="" style="endArrow=none;html=1;rounded=0;exitX=0.5;exitY=0;exitDx=0;exitDy=0;entryX=0.5;entryY=1;entryDx=0;entryDy=0;" parent="1" source="kypGd0WmLNfPFhzGnKB_-15" target="kypGd0WmLNfPFhzGnKB_-24" edge="1">
          <mxGeometry width="50" height="50" relative="1" as="geometry">
            <mxPoint x="3780" y="590" as="sourcePoint" />
            <mxPoint x="3940" y="550" as="targetPoint" />
          </mxGeometry>
        </mxCell>
        <mxCell id="kypGd0WmLNfPFhzGnKB_-204" value="" style="endArrow=none;html=1;rounded=0;entryX=0.5;entryY=1;entryDx=0;entryDy=0;exitX=0;exitY=0;exitDx=0;exitDy=0;" parent="1" source="kypGd0WmLNfPFhzGnKB_-147" target="kypGd0WmLNfPFhzGnKB_-139" edge="1">
          <mxGeometry width="50" height="50" relative="1" as="geometry">
            <mxPoint x="2890.000000000001" y="277.9999999999998" as="sourcePoint" />
            <mxPoint x="2818.000000000001" y="139.99999999999977" as="targetPoint" />
          </mxGeometry>
        </mxCell>
        <mxCell id="kypGd0WmLNfPFhzGnKB_-211" value="" style="endArrow=none;html=1;rounded=0;entryX=0;entryY=1;entryDx=0;entryDy=0;exitX=0.5;exitY=0;exitDx=0;exitDy=0;" parent="1" source="kypGd0WmLNfPFhzGnKB_-48" target="kypGd0WmLNfPFhzGnKB_-105" edge="1">
          <mxGeometry width="50" height="50" relative="1" as="geometry">
            <mxPoint x="2820" y="1008" as="sourcePoint" />
            <mxPoint x="2892" y="870" as="targetPoint" />
          </mxGeometry>
        </mxCell>
        <mxCell id="kypGd0WmLNfPFhzGnKB_-223" value="" style="endArrow=none;html=1;rounded=0;entryX=0.5;entryY=0;entryDx=0;entryDy=0;exitX=0.5;exitY=1;exitDx=0;exitDy=0;" parent="1" source="kypGd0WmLNfPFhzGnKB_-190" target="kypGd0WmLNfPFhzGnKB_-1" edge="1">
          <mxGeometry width="50" height="50" relative="1" as="geometry">
            <mxPoint x="3260" y="250" as="sourcePoint" />
            <mxPoint x="3260" y="160" as="targetPoint" />
          </mxGeometry>
        </mxCell>
        <mxCell id="gU6FFrFlSQDx7aGuGjih-2" value="" style="endArrow=none;html=1;rounded=0;entryX=0;entryY=1;entryDx=0;entryDy=0;exitX=0.75;exitY=0;exitDx=0;exitDy=0;" edge="1" parent="1" source="kypGd0WmLNfPFhzGnKB_-1" target="kypGd0WmLNfPFhzGnKB_-137">
          <mxGeometry width="50" height="50" relative="1" as="geometry">
            <mxPoint x="3270" y="620" as="sourcePoint" />
            <mxPoint x="3482" y="353" as="targetPoint" />
          </mxGeometry>
        </mxCell>
        <mxCell id="gU6FFrFlSQDx7aGuGjih-10" value="ratings" style="shape=ext;double=1;rounded=0;whiteSpace=wrap;html=1;strokeWidth=1;perimeterSpacing=1;arcSize=15;fontSize=20;" vertex="1" parent="1">
          <mxGeometry x="3150" y="90" width="200" height="60" as="geometry" />
        </mxCell>
        <mxCell id="gU6FFrFlSQDx7aGuGjih-17" value="" style="shape=link;html=1;rounded=0;fontSize=12;startSize=8;endSize=8;curved=1;exitX=1;exitY=0.5;exitDx=0;exitDy=0;" edge="1" parent="1" source="kypGd0WmLNfPFhzGnKB_-16">
          <mxGeometry width="100" relative="1" as="geometry">
            <mxPoint x="3000" y="760" as="sourcePoint" />
            <mxPoint x="2940" y="650" as="targetPoint" />
          </mxGeometry>
        </mxCell>
        <mxCell id="gU6FFrFlSQDx7aGuGjih-18" value="" style="endArrow=classic;html=1;rounded=0;fontSize=12;startSize=8;endSize=8;curved=1;entryX=0;entryY=0.5;entryDx=0;entryDy=0;exitX=1;exitY=0.5;exitDx=0;exitDy=0;strokeWidth=0;" edge="1" parent="1" source="kypGd0WmLNfPFhzGnKB_-16" target="kypGd0WmLNfPFhzGnKB_-11">
          <mxGeometry width="50" height="50" relative="1" as="geometry">
            <mxPoint x="3030" y="790" as="sourcePoint" />
            <mxPoint x="3080" y="740" as="targetPoint" />
          </mxGeometry>
        </mxCell>
        <mxCell id="gU6FFrFlSQDx7aGuGjih-19" value="" style="shape=link;html=1;rounded=0;fontSize=12;startSize=8;endSize=8;curved=1;exitX=1;exitY=0.5;exitDx=0;exitDy=0;" edge="1" parent="1">
          <mxGeometry width="100" relative="1" as="geometry">
            <mxPoint x="3670" y="649.4088235294122" as="sourcePoint" />
            <mxPoint x="3560" y="649.4088235294122" as="targetPoint" />
          </mxGeometry>
        </mxCell>
        <mxCell id="gU6FFrFlSQDx7aGuGjih-20" value="" style="endArrow=classic;html=1;rounded=0;fontSize=12;startSize=8;endSize=8;curved=1;exitX=0;exitY=0.5;exitDx=0;exitDy=0;strokeWidth=0;entryX=1;entryY=0.5;entryDx=0;entryDy=0;" edge="1" parent="1" source="kypGd0WmLNfPFhzGnKB_-15" target="kypGd0WmLNfPFhzGnKB_-10">
          <mxGeometry width="50" height="50" relative="1" as="geometry">
            <mxPoint x="3670" y="649.4088235294122" as="sourcePoint" />
            <mxPoint x="3560" y="630" as="targetPoint" />
          </mxGeometry>
        </mxCell>
        <mxCell id="gU6FFrFlSQDx7aGuGjih-21" value="" style="shape=link;html=1;rounded=0;fontSize=12;startSize=8;endSize=8;curved=1;entryX=0.5;entryY=1;entryDx=0;entryDy=0;" edge="1" parent="1" target="gU6FFrFlSQDx7aGuGjih-10">
          <mxGeometry width="100" relative="1" as="geometry">
            <mxPoint x="3250" y="230" as="sourcePoint" />
            <mxPoint x="3245" y="190" as="targetPoint" />
          </mxGeometry>
        </mxCell>
        <mxCell id="gU6FFrFlSQDx7aGuGjih-22" value="" style="endArrow=classic;html=1;rounded=0;fontSize=12;startSize=8;endSize=8;curved=1;entryX=0.5;entryY=0;entryDx=0;entryDy=0;exitX=0.5;exitY=1;exitDx=0;exitDy=0;strokeWidth=0;" edge="1" parent="1" source="gU6FFrFlSQDx7aGuGjih-10" target="kypGd0WmLNfPFhzGnKB_-190">
          <mxGeometry width="50" height="50" relative="1" as="geometry">
            <mxPoint x="3080" y="190" as="sourcePoint" />
            <mxPoint x="3200" y="190" as="targetPoint" />
          </mxGeometry>
        </mxCell>
        <mxCell id="gU6FFrFlSQDx7aGuGjih-23" value="" style="endArrow=none;html=1;rounded=0;fontSize=12;startSize=8;endSize=8;curved=1;dashed=1;dashPattern=8 8;" edge="1" parent="1">
          <mxGeometry width="50" height="50" relative="1" as="geometry">
            <mxPoint x="3294" y="-16" as="sourcePoint" />
            <mxPoint x="3370" y="-16" as="targetPoint" />
          </mxGeometry>
        </mxCell>
        <mxCell id="gU6FFrFlSQDx7aGuGjih-25" value="" style="endArrow=none;html=1;rounded=0;entryX=0.5;entryY=1;entryDx=0;entryDy=0;exitX=0.5;exitY=0;exitDx=0;exitDy=0;" edge="1" parent="1" source="kypGd0WmLNfPFhzGnKB_-128" target="kypGd0WmLNfPFhzGnKB_-129">
          <mxGeometry width="50" height="50" relative="1" as="geometry">
            <mxPoint x="3730" y="119" as="sourcePoint" />
            <mxPoint x="3650" y="40" as="targetPoint" />
          </mxGeometry>
        </mxCell>
        <mxCell id="gU6FFrFlSQDx7aGuGjih-26" value="" style="endArrow=none;html=1;rounded=0;entryX=0.5;entryY=1;entryDx=0;entryDy=0;exitX=0.5;exitY=0;exitDx=0;exitDy=0;" edge="1" parent="1" source="kypGd0WmLNfPFhzGnKB_-128" target="kypGd0WmLNfPFhzGnKB_-130">
          <mxGeometry width="50" height="50" relative="1" as="geometry">
            <mxPoint x="3730" y="119" as="sourcePoint" />
            <mxPoint x="3810" y="40" as="targetPoint" />
          </mxGeometry>
        </mxCell>
        <mxCell id="gU6FFrFlSQDx7aGuGjih-39" value="" style="endArrow=none;html=1;rounded=0;entryX=0.5;entryY=1;entryDx=0;entryDy=0;exitX=0.5;exitY=0;exitDx=0;exitDy=0;" edge="1" parent="1" source="kypGd0WmLNfPFhzGnKB_-139" target="kypGd0WmLNfPFhzGnKB_-141">
          <mxGeometry width="50" height="50" relative="1" as="geometry">
            <mxPoint x="2770" y="120" as="sourcePoint" />
            <mxPoint x="2695" y="40" as="targetPoint" />
          </mxGeometry>
        </mxCell>
        <mxCell id="gU6FFrFlSQDx7aGuGjih-40" value="" style="endArrow=none;html=1;rounded=0;entryX=0.5;entryY=1;entryDx=0;entryDy=0;exitX=0.5;exitY=0;exitDx=0;exitDy=0;" edge="1" parent="1" source="kypGd0WmLNfPFhzGnKB_-139" target="kypGd0WmLNfPFhzGnKB_-140">
          <mxGeometry width="50" height="50" relative="1" as="geometry">
            <mxPoint x="2770" y="120" as="sourcePoint" />
            <mxPoint x="2855" y="40" as="targetPoint" />
          </mxGeometry>
        </mxCell>
      </root>
    </mxGraphModel>
  </diagram>
</mxfile>
